HIERARCHY
ROOT Hips
{
  OFFSET -2.33658 39.0322 -42.1687
  CHANNELS 6 Xposition Yposition Zposition Zrotation Xrotation Yrotation
  JOINT ToSpine
  {
    OFFSET -2.69724 7.43032 -0.144315
    CHANNELS 3 Zrotation Xrotation Yrotation
    JOINT Spine
    {
      OFFSET -0.0310711 10.7595 1.96963
      CHANNELS 3 Zrotation Xrotation Yrotation
      JOINT Spine1
      {
        OFFSET 19.9056 3.91189 0.764692
        CHANNELS 3 Zrotation Xrotation Yrotation
        JOINT Neck
        {
          OFFSET 25.9749 7.03908 -0.130764
          CHANNELS 3 Zrotation Xrotation Yrotation
          JOINT Head
          {
            OFFSET 9.52751 0.295786 -0.907742
            CHANNELS 3 Zrotation Xrotation Yrotation
            End Site
            {
              OFFSET 16.4037 0.713936 2.7358
            }
          }
        }
        JOINT LeftShoulder
        {
          OFFSET 17.7449 4.33886 11.7777
          CHANNELS 3 Zrotation Xrotation Yrotation
          JOINT LeftArm
          {
            OFFSET 0.911315 1.27913 9.80584
            CHANNELS 3 Zrotation Xrotation Yrotation
            JOINT LeftForeArm
            {
              OFFSET 28.6126 1.18197 -3.53199
              CHANNELS 3 Zrotation Xrotation Yrotation
              JOINT LeftHand
              {
                OFFSET 27.5088 0.0218783 0.327423
                CHANNELS 3 Zrotation Xrotation Yrotation
                End Site
                {
                  OFFSET 18.6038 -0.000155887 0.382096
                }
              }
            }
          }
        }
        JOINT RightShoulder
        {
          OFFSET 17.1009 2.89543 -12.2328
          CHANNELS 3 Zrotation Xrotation Yrotation
          JOINT RightArm
          {
            OFFSET 1.4228 0.178766 -10.211
            CHANNELS 3 Zrotation Xrotation Yrotation
            JOINT RightForeArm
            {
              OFFSET 28.733 1.87905 2.64907
              CHANNELS 3 Zrotation Xrotation Yrotation
              JOINT RightHand
              {
                OFFSET 27.4588 0.290562 -0.101845
                CHANNELS 3 Zrotation Xrotation Yrotation
                End Site
                {
                  OFFSET 17.8396 -0.255518 -0.000602873
                }
              }
            }
          }
        }
      }
    }
  }
  JOINT LeftUpLeg
  {
    OFFSET -5.61296 -2.22332 -10.2353
    CHANNELS 3 Zrotation Xrotation Yrotation
    JOINT LeftLeg
    {
      OFFSET 2.56703 -44.7417 -7.93097
      CHANNELS 3 Zrotation Xrotation Yrotation
      JOINT LeftFoot
      {
        OFFSET 3.16933 -46.5642 -3.96578
        CHANNELS 3 Zrotation Xrotation Yrotation
        JOINT LeftToeBase
        {
          OFFSET 0.346054 -6.02161 12.8035
          CHANNELS 3 Zrotation Xrotation Yrotation
          End Site
          {
            OFFSET 0.134235 -1.35082 5.13018
          }
        }
      }
    }
  }
  JOINT RightUpLeg
  {
    OFFSET -5.7928 -1.72406 10.6446
    CHANNELS 3 Zrotation Xrotation Yrotation
    JOINT RightLeg
    {
      OFFSET -2.57161 -44.7178 -7.85259
      CHANNELS 3 Zrotation Xrotation Yrotation
      JOINT RightFoot
      {
        OFFSET -3.10148 -46.5936 -4.03391
        CHANNELS 3 Zrotation Xrotation Yrotation
        JOINT RightToeBase
        {
          OFFSET -0.0828122 -6.13587 12.8035
          CHANNELS 3 Zrotation Xrotation Yrotation
          End Site
          {
            OFFSET -0.131328 -1.35082 5.13018
          }
        }
      }
    }
  }
}
MOTION
Frames:	15
Frame Time:	0.0333333
-1.97872 39.1625 -41.9574 119.856 -83.3029 32.0225 -70.1915 0 88.8779 163.891 26.5031 -75.1513 -4.03915 21.8865 -1.22892 -171.84 27.1563 -177.302 -171.333 67.9341 -152.105 0.968353 -10.8107 -13.6813 -58.1436 25.5967 -165.146 21.1398 12.6516 -57.4953 12.4038 -0.174422 0.0742108 -0.158698 3.19843 22.2369 -57.6044 -10.1918 152.322 37.1737 -10.7453 75.3915 39.6047 -6.96081 -19.8636 21.1231 7.36572 73.6556 -171.27 20.1802 155.697 -3.45568 3.40016 0.65083 -28.4496 -49.0509 -14.6445 15.2967 -27.0247 103.315 171.056 17.6242 -149.618 -3.68566 -9.74854 1.0006 -10.6319 -39.6621 -11.1855 
-2.01256 39.1597 -41.9173 120.016 -83.2685 32.188 -70.1915 0 88.8779 163.89 26.4722 -75.1303 -4.00381 21.8818 -1.28104 -171.92 27.1024 -177.575 -170.348 67.8951 -153.375 0.969961 -10.7816 -13.622 -58.1347 25.6393 -165.198 21.2219 12.6955 -57.5277 12.2688 -0.185548 -0.0447093 -0.158754 3.27017 22.0389 -57.5261 -10.503 152.377 37.3469 -10.7585 75.464 39.6003 -6.95891 -19.8606 21.0371 7.38807 73.5334 -171.263 20.1583 155.556 -3.48791 3.31712 0.647282 -28.4171 -49.008 -14.639 15.1132 -27.0139 103.185 171.062 17.6129 -149.753 -3.69849 -9.90052 1.00748 -10.6218 -39.677 -11.1259 
-2.11733 39.1764 -41.8357 120.576 -83.1053 32.5515 -70.1915 0 88.8779 163.772 26.4774 -75.239 -3.89252 21.8391 -1.21262 -171.778 27.1013 -177.418 -170.383 67.8995 -153.337 0.961803 -10.9227 -13.9577 -58.3387 25.408 -164.925 21.2987 12.715 -57.6009 11.9514 -0.203991 -0.261939 -0.163003 3.27623 22.1422 -57.6734 -10.3559 152.237 37.3454 -10.7825 75.43 39.4666 -6.89091 -19.7439 20.6736 7.47059 73.5269 -171.246 20.1932 155.272 -3.53237 3.14528 0.636513 -28.3645 -48.9392 -14.6292 14.7181 -26.827 103.12 171.079 17.5739 -150.092 -3.41801 -10.3259 1.01515 -10.5967 -39.7352 -10.9492 
-2.15502 39.1291 -41.8662 119.942 -83.1031 31.8596 -70.1915 0 88.8779 163.681 26.5268 -75.3169 -3.95124 21.8102 -1.11882 -171.882 27.0449 -177.472 -170.181 67.8512 -153.885 0.966253 -10.8377 -13.8221 -58.2462 25.5006 -165.018 21.4498 12.7907 -57.6687 11.6026 -0.221499 -0.487683 -0.155552 3.24011 22.0308 -57.6101 -10.3962 152.315 37.3908 -10.8217 75.3996 39.4784 -6.83921 -19.5947 20.9089 7.42324 73.5024 -171.243 20.1701 155.196 -3.66546 3.26652 0.668755 -28.3105 -48.8689 -14.6187 14.8618 -26.8256 103.102 171.086 17.5508 -150.26 -3.65308 -10.3845 1.02519 -10.6333 -39.7944 -11.0115 
-2.17149 39.06 -41.9049 121.269 -82.6725 32.9522 -70.1915 0 88.8779 163.493 26.4011 -75.5398 -3.78985 21.6402 -0.810534 -171.804 27.0362 -177.406 -170.05 67.8478 -154.102 0.962896 -10.9079 -13.9011 -58.2742 25.4766 -164.989 21.5544 12.8483 -57.7043 11.2671 -0.237328 -0.707904 -0.145968 3.16367 21.9666 -57.6536 -10.3538 152.364 37.3036 -10.7544 75.4469 39.246 -6.84773 -19.741 20.6473 7.2315 73.8639 -171.246 20.174 155.268 -3.71899 3.36804 0.687271 -28.249 -48.8002 -14.5901 14.8051 -27.0297 103.687 171.081 17.3866 -150.078 -3.42692 -10.3911 1.01818 -10.5605 -39.6912 -10.8675 
-2.21695 39.0463 -41.9373 121.352 -82.7815 32.9862 -70.1915 0 88.8779 163.461 26.5389 -75.6235 -3.69943 21.6865 -0.748827 -171.761 27.0401 -177.096 -170.733 67.858 -153.459 0.962504 -10.8883 -14.0582 -58.3242 25.3578 -164.917 21.6371 12.883 -57.7532 10.9246 -0.251009 -0.921375 -0.147659 3.17701 21.981 -57.6553 -10.276 152.387 37.2055 -10.7253 75.436 39.1797 -6.90971 -19.9492 20.7842 7.38204 73.7607 -171.24 20.18 155.144 -3.78433 3.4469 0.705305 -28.2162 -48.7538 -14.5888 15.0913 -26.85 103.614 171.09 17.3576 -150.284 -3.11767 -10.1565 0.998187 -10.5726 -39.7622 -10.8192 
-2.20137 39.0323 -41.9531 120.558 -82.661 32.2483 -70.1915 0 88.8779 163.459 26.5661 -75.4858 -3.55242 21.5952 -0.724914 -172.137 26.9989 -176.97 -170.82 67.8535 -153.718 0.969613 -10.7441 -13.8675 -58.2834 25.4667 -165.253 21.7321 12.9608 -57.7348 10.6701 -0.263741 -1.11435 -0.127584 3.11481 21.5619 -57.5914 -10.5358 152.753 37.0582 -10.7259 75.3574 39.0434 -6.9179 -20.0454 20.9297 7.18813 73.8084 -171.243 20.1682 155.215 -3.81349 3.51234 0.716534 -28.1605 -48.7009 -14.5492 15.0881 -27.0472 103.617 171.094 17.3925 -150.384 -3.15705 -10.2919 1.00544 -10.5117 -39.7304 -10.6247 
-2.24542 39.0547 -41.9871 121.235 -82.6573 32.8152 -70.1915 0 88.8779 163.434 26.4909 -75.6443 -3.64328 21.6498 -0.71891 -171.686 27.0386 -177.094 -170.762 67.85 -153.534 0.963631 -10.8888 -13.9036 -58.3362 25.4121 -165.118 21.7375 12.9711 -57.7209 10.7083 -0.274464 -1.21579 -0.140299 3.17834 21.7603 -57.6801 -10.4337 152.51 37.0566 -10.6893 75.4078 38.852 -6.88226 -20.0502 20.8259 7.28466 73.8432 -171.239 20.2339 155.15 -3.88203 3.5301 0.728816 -28.12 -48.6511 -14.5368 15.0127 -26.9454 103.643 171.091 17.3936 -150.307 -3.459 -10.2865 1.01486 -10.5643 -39.6891 -10.8854 
-2.26452 39.0302 -42.0218 121.4 -82.5004 32.8761 -70.1915 0 88.8779 163.355 26.4214 -75.736 -3.68825 21.5827 -0.607827 -171.449 27.055 -177.112 -170.825 67.8457 -153.37 0.961721 -10.9319 -13.9251 -58.3757 25.3524 -165.089 21.7133 12.9682 -57.6912 10.869 -0.286547 -1.29627 -0.139578 3.19039 21.7067 -57.6724 -10.5495 152.516 37.0125 -10.6496 75.4402 38.3422 -6.82305 -20.162 20.8045 7.17662 73.9979 -171.241 20.2528 155.199 -3.91823 3.57843 0.739395 -28.0439 -48.583 -14.4765 15.0889 -26.9931 103.807 171.094 17.3462 -150.376 -3.16241 -10.2324 1.00289 -10.5598 -39.7386 -10.801 
-2.26539 39.0139 -42.0319 121.295 -82.5883 32.8728 -70.1915 0 88.8779 163.451 26.4544 -75.5705 -3.67742 21.6626 -0.860035 -171.199 27.0807 -177.362 -170.405 67.8437 -153.72 0.961626 -10.964 -13.7888 -58.3383 25.3832 -165.141 21.6672 12.96 -57.6409 11.3493 -0.300492 -1.30865 -0.142671 3.19513 21.7831 -57.627 -10.5168 152.364 36.7785 -10.5273 75.4894 38.5062 -6.81554 -20.051 20.9485 7.1967 73.8152 -171.239 20.2105 155.155 -3.95082 3.57209 0.743705 -27.9975 -48.5363 -14.4469 15.0236 -26.9753 103.644 171.09 17.371 -150.289 -3.47915 -10.3605 1.01873 -10.5633 -39.6491 -10.9354 
-2.29649 39.0225 -42.0617 121.757 -82.6359 33.2513 -70.1915 0 88.8779 163.436 26.5085 -75.678 -3.62409 21.7061 -0.792257 -171.117 27.1242 -177.073 -170.995 67.8884 -153.065 0.95723 -11.0351 -13.9622 -58.4255 25.2478 -165.051 21.517 12.8768 -57.5888 12.3073 -0.312465 -1.18496 -0.146081 3.30654 21.5814 -57.6511 -10.7462 152.327 36.8186 -10.4769 75.5818 38.0016 -6.83561 -20.3878 20.9192 7.31525 73.8292 -171.236 20.2493 155.113 -3.97602 3.58289 0.748686 -27.9605 -48.4982 -14.4249 15.1445 -26.8613 103.716 171.085 17.3383 -150.169 -3.33806 -10.1936 1.00701 -10.5997 -39.6457 -11.082 
-2.28958 39.0014 -42.0741 121.439 -82.545 33.0027 -70.1915 0 88.8779 163.446 26.4546 -75.493 -3.60195 21.6485 -0.976799 -171.106 27.0925 -177.268 -170.621 67.8507 -153.528 0.960815 -10.9779 -13.817 -58.4288 25.2509 -165.114 21.3738 12.8019 -57.5315 13.3965 -0.322755 -1.03751 -0.153738 3.43424 21.4672 -57.5642 -11.0031 152.409 36.6545 -10.443 75.5439 38.2323 -6.88036 -20.3867 21.01 7.167 73.801 -171.239 20.2207 155.152 -3.99493 3.59392 0.752743 -27.8899 -48.4372 -14.3656 15.1714 -26.948 103.676 171.089 17.3428 -150.267 -3.02134 -10.1759 0.99578 -10.5723 -39.7003 -10.9014 
-2.31114 39.0197 -42.1149 121.713 -82.5376 33.2521 -70.1915 0 88.8779 163.409 26.4009 -75.6129 -3.6317 21.6269 -0.850743 -171.248 27.0689 -177.258 -170.333 67.8475 -153.931 0.963848 -10.893 -13.861 -58.4839 25.1686 -165.14 21.1962 12.7011 -57.479 14.6078 -0.328196 -0.853521 -0.140718 3.32965 21.3719 -57.5251 -10.9997 152.66 36.5759 -10.4282 75.5239 37.8789 -6.82755 -20.4347 21.0011 7.16606 73.8048 -171.237 20.2696 155.14 -4.07481 3.64465 0.77034 -27.8669 -48.4098 -14.3587 15.1012 -26.9543 103.625 171.084 17.3657 -150.209 -3.36705 -10.1742 1.00715 -10.6145 -39.6495 -11.1348 
-2.3341 39.0166 -42.1568 122.338 -82.4391 33.7208 -70.1915 0 88.8779 163.327 26.3082 -75.8045 -3.74636 21.5617 -0.597398 -171.15 27.0981 -176.834 -171.149 67.8822 -152.996 0.958958 -10.9472 -14.1825 -58.5971 24.9687 -164.905 20.9652 12.5478 -57.4563 15.9118 -0.323372 -0.613663 -0.130328 3.26393 21.2452 -57.4402 -11.0733 152.761 36.5897 -10.4172 75.5465 37.6226 -6.80639 -20.5193 20.8799 7.16326 73.9936 -171.238 20.3251 155.174 -4.12547 3.6994 0.783943 -27.855 -48.3955 -14.3519 15.1227 -26.921 103.794 171.086 17.3582 -150.2 -3.23969 -10.1451 1.00166 -10.6521 -39.7267 -11.1762 
-2.33674 38.9929 -42.1551 121.736 -82.4952 33.2053 -70.1915 0 88.8779 163.345 26.3972 -75.6668 -3.70892 21.566 -0.712113 -171.209 27.0742 -176.93 -170.878 67.8636 -153.359 0.961849 -10.8898 -14.1256 -58.596 24.9477 -164.939 20.8044 12.456 -57.4085 17.0625 -0.315235 -0.419813 -0.132235 3.21561 21.4267 -57.4448 -10.9145 152.778 36.4703 -10.4191 75.4808 37.7204 -6.76024 -20.3297 21.0647 7.11675 73.8586 -171.237 20.2782 155.142 -4.16161 3.69832 0.789382 -27.8181 -48.3628 -14.3226 15.169 -26.9642 103.675 171.085 17.3545 -150.17 -3.29484 -10.1691 1.00435 -10.6778 -39.7491 -11.2454 
